<?xml version="1.0" standalone="no"?>
<!DOCTYPE svg PUBLIC "-//W3C//DTD SVG 20010904//EN"
 "http://www.w3.org/TR/2001/REC-SVG-20010904/DTD/svg10.dtd">
<svg version="1.0" xmlns="http://www.w3.org/2000/svg"
 width="3061.000000pt" height="836.000000pt" viewBox="0 0 3061.000000 836.000000"
 preserveAspectRatio="xMidYMid meet">

<g transform="translate(0.000000,836.000000) scale(0.100000,-0.100000)"
fill="#000000" stroke="none">
<path d="M24800 8201 c-89 -19 -147 -63 -198 -149 l-27 -47 -3 -930 -3 -930
-39 -17 -39 -16 -3 -79 -3 -78 -98 -6 c-87 -5 -102 -9 -139 -35 -139 -98 -104
-313 59 -360 l53 -16 -2 -556 -3 -557 -61 -110 c-33 -60 -105 -195 -159 -300
-54 -104 -101 -194 -105 -200 -4 -5 -43 -80 -87 -165 -133 -258 -224 -433
-248 -475 -12 -22 -62 -116 -110 -210 -49 -93 -99 -183 -111 -200 -46 -62 -95
-193 -101 -270 -5 -69 -4 -77 23 -119 22 -35 39 -49 74 -61 79 -28 270 -53
450 -60 96 -3 269 -13 383 -21 186 -13 243 -13 525 0 608 30 804 50 975 103
39 12 50 21 63 51 8 21 18 51 20 67 5 26 3 24 -15 -13 -24 -50 -33 -54 -179
-82 -503 -95 -1670 -91 -2122 6 -41 9 -83 21 -92 26 -29 14 -48 64 -48 123 0
51 7 71 66 183 37 70 118 226 181 347 64 121 136 258 160 305 25 47 75 141
110 210 36 69 93 177 126 240 33 63 116 223 185 355 68 132 129 246 136 254 8
10 12 175 14 573 l3 558 39 0 40 0 0 -74 c0 -83 8 -97 66 -116 45 -15 170 -9
209 10 29 15 30 17 33 98 3 79 4 83 25 80 16 -2 26 -17 40 -53 17 -46 19 -90
20 -550 l2 -500 68 -128 c37 -70 97 -184 133 -255 37 -70 86 -163 109 -207
163 -310 455 -867 580 -1110 48 -93 92 -174 97 -180 13 -15 -2 53 -29 125 -24
66 -46 109 -168 345 -62 120 -93 178 -225 430 -26 50 -87 167 -135 260 -48 94
-98 188 -110 210 -28 50 -122 230 -209 399 l-66 129 2 541 3 540 50 19 c91 33
145 107 145 197 0 65 -27 118 -81 161 -40 31 -47 33 -143 38 l-101 6 -5 80 -5
80 -37 18 -38 17 0 900 c0 992 -3 952 62 987 30 16 68 18 411 21 363 3 381 2
420 -17 76 -37 71 13 77 -761 l5 -695 24 -45 c54 -103 168 -167 275 -155 103
11 177 60 224 150 l27 50 5 695 c4 517 8 700 17 716 22 39 62 56 143 61 66 5
85 2 122 -16 73 -35 78 -55 78 -305 l0 -212 -32 -15 c-31 -13 -34 -18 -41 -79
-11 -88 -1 -398 13 -415 6 -8 21 -15 33 -17 l22 -3 3 -406 2 -407 -35 -6 c-54
-10 -103 -34 -114 -55 -6 -11 -11 -50 -12 -87 -1 -38 -10 -93 -21 -124 -29
-84 -37 -221 -26 -450 7 -150 6 -262 -3 -419 -18 -307 -6 -1250 18 -1446 15
-128 16 -183 5 -665 -15 -603 -21 -558 78 -544 63 9 97 9 271 -1 l126 -8 20
59 c24 73 45 80 100 32 78 -69 88 -73 208 -73 166 1 242 28 381 139 195 156
367 533 409 896 18 147 20 545 5 670 -37 295 -139 468 -331 559 -124 59 -245
91 -369 97 -67 4 -136 14 -190 30 -47 13 -103 28 -126 34 l-41 10 -7 92 c-3
51 -9 242 -13 423 -5 281 -3 341 10 407 10 47 14 96 10 127 -5 45 -8 51 -29
51 -23 0 -24 2 -24 84 0 104 -16 128 -96 152 l-54 15 0 405 0 404 25 10 c43
16 48 47 40 274 -4 115 -9 215 -12 222 -2 7 -15 15 -28 18 l-23 6 -4 237 c-4
225 -5 240 -27 283 -31 61 -87 117 -141 143 -38 18 -64 21 -160 22 -102 0
-121 -3 -164 -24 -58 -29 -108 -77 -138 -134 l-23 -42 -5 -695 c-6 -786 0
-733 -87 -766 -41 -16 -50 -16 -86 -3 -22 8 -50 27 -61 42 -21 28 -21 38 -26
720 -5 691 -5 692 -27 737 -31 63 -96 125 -151 147 -42 15 -90 18 -437 19
-214 1 -406 -1 -425 -5z m856 -65 c57 -27 110 -84 124 -136 6 -21 10 -300 10
-700 0 -628 1 -667 19 -706 28 -62 80 -97 152 -102 51 -4 65 -1 98 21 21 14
49 43 62 63 l23 38 2 681 c1 770 -3 731 82 805 57 51 104 63 222 58 136 -6
195 -40 239 -138 18 -40 21 -65 21 -239 0 -186 -1 -196 -22 -218 -12 -13 -25
-23 -30 -23 -4 0 -8 97 -8 216 0 242 -5 264 -68 312 -31 24 -46 27 -124 31
-112 4 -149 -3 -188 -36 -68 -57 -64 -15 -70 -785 l-5 -696 -30 -44 c-85 -120
-238 -142 -345 -51 -80 69 -74 14 -80 795 l-5 696 -30 43 c-58 82 -45 80 -511
77 l-411 -3 -36 -28 c-77 -59 -72 12 -75 -974 l-2 -883 -25 0 -25 0 0 878 c0
596 4 889 11 916 13 48 91 128 139 143 23 7 172 11 435 12 l400 1 51 -24z
m1014 -681 c21 -25 14 -319 -8 -364 -20 -40 -43 -57 -66 -48 -14 6 -16 30 -16
201 0 107 3 201 6 210 8 21 67 21 84 1z m113 -55 c10 -83 2 -339 -11 -352 -6
-6 -18 -8 -26 -5 -14 6 -16 35 -16 217 l0 211 23 -3 c19 -3 23 -11 30 -68z
m-73 -837 l0 -373 -30 0 -30 0 0 378 c0 208 3 381 6 385 3 3 17 1 30 -5 l24
-11 0 -374z m78 -440 c34 -8 21 -26 -29 -38 -60 -15 -67 -45 -10 -45 22 0 42
-4 46 -9 6 -10 -21 -16 -120 -26 -101 -10 -102 -36 -2 -46 50 -5 39 -6 -55 -7
-133 -2 -126 -8 -120 95 4 51 5 52 45 67 23 8 51 17 62 20 22 5 147 -2 183
-11z m-2084 -32 c3 -5 0 -26 -7 -47 -15 -43 -56 -70 -121 -81 l-36 -6 0 66 0
66 33 4 c63 8 126 7 131 -2z m289 -200 c32 -17 33 -31 7 -90 -29 -62 -86 -113
-163 -144 -86 -35 -156 -45 -363 -53 l-172 -7 -42 40 c-39 36 -43 45 -47 94
-7 86 39 151 118 168 19 5 169 7 334 7 237 -1 306 -4 328 -15z m-341 -381 c72
-22 101 -47 96 -81 -2 -17 -13 -25 -38 -32 -36 -9 -140 -4 -159 8 -6 3 -11 33
-11 66 0 56 1 59 24 59 13 0 53 -9 88 -20z m2545 -1315 c104 -47 190 -155 227
-285 42 -150 43 -399 1 -584 -50 -221 -154 -345 -267 -321 -39 9 -113 81 -134
131 -42 99 -45 129 -50 529 -3 215 -2 426 3 470 8 78 9 80 38 87 47 10 125 -1
182 -27z"/>
<path d="M24432 5848 c2 -17 10 -23 28 -23 18 0 26 6 28 23 3 19 -1 22 -28 22
-27 0 -31 -3 -28 -22z"/>
<path d="M24308 5833 c-44 -27 -62 -89 -34 -112 17 -14 46 -4 46 16 0 8 14 27
31 42 53 49 19 93 -43 54z"/>
<path d="M22108 6070 c-114 -11 -153 -25 -182 -63 -44 -62 -51 -93 -50 -252 1
-456 14 -1447 24 -1825 7 -239 12 -680 12 -980 0 -357 3 -549 10 -557 18 -23
77 -25 185 -9 210 31 301 37 421 30 170 -10 222 12 222 95 0 19 7 71 15 115 8
45 19 142 24 217 5 77 16 151 24 172 18 43 9 88 -29 148 -34 54 -86 77 -188
85 l-85 7 -5 36 c-24 146 -53 1724 -43 2316 5 295 7 323 25 358 43 81 0 110
-173 113 -66 1 -159 -1 -207 -6z"/>
<path d="M18565 6009 c-81 -12 -161 -36 -178 -54 -27 -26 -30 -188 -13 -716
12 -375 14 -548 6 -639 -5 -69 -10 -269 -10 -445 0 -176 -7 -439 -15 -585 -8
-155 -15 -456 -15 -724 l0 -459 163 7 c152 6 299 18 393 32 68 10 69 16 70
489 1 531 27 1103 54 1198 24 82 136 162 218 155 47 -4 78 -47 89 -126 4 -31
8 -410 7 -842 0 -717 -2 -789 -18 -834 -10 -29 -13 -53 -8 -58 19 -19 161 -30
307 -25 168 6 245 19 270 47 16 18 16 23 0 92 -21 92 -23 493 -5 953 20 488
-6 1065 -55 1236 -28 99 -87 170 -203 244 -156 99 -222 113 -336 71 -75 -28
-96 -41 -190 -113 -38 -30 -74 -52 -80 -50 -19 6 -26 129 -28 507 -3 314 -1
377 15 454 25 129 23 160 -10 177 -34 16 -335 22 -428 8z"/>
<path d="M12093 5969 c-26 -32 -36 -105 -33 -229 7 -224 5 -530 -4 -748 -9
-204 -10 -213 -30 -216 -12 -3 -84 -12 -161 -20 -312 -36 -498 -99 -605 -206
-93 -92 -226 -329 -279 -494 -64 -200 -80 -363 -81 -826 -1 -255 2 -353 14
-410 44 -230 159 -354 366 -395 41 -8 153 -20 249 -26 238 -16 326 -5 452 56
51 25 100 45 109 45 10 0 30 -20 45 -44 44 -70 84 -79 225 -51 41 8 119 17
172 21 l97 6 7 56 c4 31 3 140 -2 242 -5 102 -9 550 -9 995 0 446 -4 869 -8
940 -17 278 -26 820 -16 955 12 166 14 230 5 256 -13 40 -53 56 -159 64 -56 5
-115 14 -132 20 -49 19 -208 25 -222 9z m-86 -1781 c11 -13 25 -39 31 -58 28
-95 48 -885 24 -966 -10 -35 -18 -44 -55 -57 -153 -59 -478 -4 -546 92 -100
141 -44 489 117 716 99 141 188 230 276 276 17 9 54 17 82 18 40 1 55 -3 71
-21z"/>
<path d="M24485 5247 c-3 -7 -4 -138 -3 -292 3 -253 5 -280 20 -283 34 -7 41
35 46 289 3 136 2 259 -2 273 -5 19 -13 26 -32 26 -13 0 -27 -6 -29 -13z"/>
<path d="M17510 4978 c-25 -5 -129 -31 -231 -58 -200 -51 -278 -84 -414 -175
-132 -88 -185 -150 -236 -277 -121 -295 -93 -715 59 -894 9 -11 38 -32 63 -47
25 -15 65 -47 88 -72 23 -25 55 -51 70 -59 34 -18 159 -42 266 -51 89 -8 146
-33 164 -72 6 -13 11 -47 11 -74 0 -42 -5 -55 -28 -79 -32 -32 -86 -50 -152
-50 -92 0 -297 21 -340 36 -74 25 -130 36 -154 30 -21 -5 -22 -12 -34 -203
-15 -246 -16 -420 -1 -480 10 -38 18 -48 47 -60 31 -13 39 -13 71 1 29 12 68
14 191 12 107 -3 174 0 215 10 33 8 102 14 153 14 79 0 100 4 142 25 28 14 50
29 50 34 0 5 30 24 68 43 205 106 195 98 256 213 84 157 109 259 110 460 1
127 -3 173 -17 225 -40 141 -105 245 -191 307 -27 20 -134 78 -237 129 -144
72 -200 106 -238 144 -56 54 -62 77 -32 126 50 82 157 124 314 124 56 0 117
-4 135 -9 18 -6 39 -8 45 -5 7 2 24 30 39 62 24 51 26 62 17 112 -5 30 -8 141
-7 245 2 176 1 194 -19 237 -37 82 -110 105 -243 76z"/>
<path d="M29220 4940 c-243 -62 -260 -67 -340 -108 -72 -38 -211 -129 -250
-164 -180 -164 -257 -555 -174 -883 33 -127 87 -211 167 -259 23 -14 62 -46
87 -72 66 -69 114 -85 319 -109 123 -15 155 -29 180 -79 32 -67 9 -145 -52
-172 -74 -34 -367 -20 -495 22 -74 25 -109 29 -128 16 -12 -8 -34 -338 -34
-509 0 -62 5 -135 11 -163 10 -46 15 -54 47 -67 29 -12 40 -13 61 -2 18 9 80
14 201 15 96 0 199 6 229 12 29 7 93 12 141 12 94 0 142 14 175 50 11 12 49
36 85 54 85 42 182 97 196 110 9 9 43 70 101 178 8 15 26 74 41 130 23 89 26
123 26 258 1 205 -24 297 -115 432 -52 76 -110 115 -332 227 -199 99 -287 164
-287 210 0 59 65 127 152 159 53 19 234 27 306 14 l53 -9 30 43 c16 24 29 56
29 71 0 16 -2 135 -4 265 -3 226 -4 239 -27 285 -49 99 -116 104 -399 33z"/>
<path d="M3603 4941 c-122 -5 -145 -9 -169 -26 -55 -42 -54 -18 -53 -1056 0
-527 -2 -962 -4 -966 -7 -11 10 -431 18 -458 3 -11 20 -28 37 -38 28 -16 49
-17 212 -11 100 4 189 11 199 16 28 15 54 84 62 166 4 41 2 243 -5 450 -19
558 3 886 72 1065 16 42 41 91 55 108 50 58 128 80 137 37 40 -182 55 -251 58
-252 69 -48 73 -50 132 -49 85 0 132 22 140 64 13 75 18 458 7 598 -19 232
-33 265 -135 316 -78 39 -170 36 -263 -9 -41 -20 -94 -56 -124 -85 -29 -28
-54 -49 -57 -47 -2 3 -8 39 -13 81 -4 43 -13 83 -20 91 -12 15 -19 15 -286 5z"/>
<path d="M13268 4941 c-145 -6 -158 -8 -181 -29 -13 -12 -29 -40 -36 -61 -8
-28 -11 -278 -10 -907 0 -478 -2 -923 -6 -989 -7 -113 8 -475 21 -521 3 -12
21 -28 40 -38 31 -14 59 -15 220 -10 184 7 185 7 203 33 51 75 56 139 41 595
-18 538 0 848 61 1045 35 114 89 179 157 188 39 5 41 4 47 -23 3 -16 10 -47
15 -69 5 -22 15 -67 21 -100 8 -38 21 -70 38 -88 66 -72 240 -55 255 25 14 72
18 466 7 603 -20 232 -33 261 -139 312 -83 39 -168 35 -263 -12 -42 -22 -94
-59 -126 -90 -29 -30 -53 -53 -53 -52 -2 53 -23 173 -31 183 -8 9 -30 13 -68
12 -31 -1 -127 -4 -213 -7z"/>
<path d="M2105 4924 c-67 -14 -161 -37 -174 -43 -159 -73 -263 -158 -343 -278
-222 -334 -362 -923 -329 -1383 20 -279 56 -394 167 -541 89 -117 210 -215
298 -241 57 -17 407 -17 514 1 45 7 86 10 90 7 4 -4 7 -109 7 -234 0 -245 -15
-354 -56 -406 -25 -32 -105 -61 -210 -77 -67 -10 -132 -9 -325 1 -133 7 -252
10 -266 7 -13 -4 -30 -19 -38 -34 -16 -34 -33 -399 -28 -593 7 -248 7 -248
543 -252 380 -3 423 0 530 45 193 79 322 297 374 632 63 408 89 840 104 1780
16 991 15 1207 -2 1275 -20 81 -53 141 -104 187 -80 74 -164 106 -352 134
-118 17 -342 24 -400 13z m242 -654 c18 -11 39 -36 48 -57 25 -58 28 -275 12
-695 -13 -328 -17 -382 -34 -415 -50 -101 -247 -108 -394 -15 -92 59 -115 128
-106 316 9 210 80 525 149 666 58 119 179 220 263 220 17 0 45 -9 62 -20z"/>
<path d="M9438 4854 c-4 -3 -98 -6 -211 -7 -248 -2 -239 2 -259 -125 -17 -115
-17 -1132 1 -1337 7 -77 15 -315 18 -530 4 -287 9 -398 18 -422 15 -37 12 -36
216 -54 174 -15 227 -10 274 26 l36 27 -6 62 c-12 116 -23 1179 -14 1288 12
136 37 209 88 260 36 35 44 38 94 38 112 0 183 -85 232 -275 46 -182 57 -330
64 -880 5 -359 10 -516 19 -531 6 -12 26 -24 43 -28 37 -7 449 -21 449 -15 0
2 4 30 9 61 6 35 6 103 1 175 -10 120 -21 465 -40 1208 -12 437 -20 562 -46
665 -35 143 -122 273 -209 314 -59 28 -175 49 -275 50 -104 1 -133 -7 -289
-83 -47 -23 -91 -41 -98 -41 -14 0 -33 31 -33 56 0 32 -41 104 -59 104 -10 0
-20 -3 -23 -6z"/>
<path d="M5605 4813 c-245 -34 -436 -188 -565 -458 -95 -198 -131 -366 -138
-648 -8 -366 50 -663 175 -892 77 -142 271 -363 374 -427 77 -48 123 -61 214
-60 104 0 343 50 421 88 87 42 281 234 322 319 114 233 180 730 137 1031 -86
606 -262 904 -595 1010 -98 31 -260 49 -345 37z m166 -628 c86 -37 193 -154
249 -271 50 -106 71 -197 77 -329 7 -149 -8 -241 -51 -332 -56 -116 -140 -174
-252 -172 -239 3 -385 245 -355 587 6 60 13 122 16 138 18 79 62 196 95 254
72 124 138 161 221 125z"/>
<path d="M8052 4752 c-25 -24 -25 -24 -19 -181 3 -86 11 -248 18 -361 23 -391
-16 -639 -118 -755 -68 -77 -208 -165 -261 -165 -72 0 -84 22 -106 198 -27
211 -36 418 -36 832 0 358 -2 411 -16 424 -19 20 -48 20 -145 2 -58 -12 -95
-13 -160 -5 -214 24 -203 25 -228 -7 -22 -28 -23 -34 -17 -159 3 -71 10 -342
14 -600 4 -259 11 -475 14 -480 3 -6 11 -100 18 -210 28 -486 80 -698 197
-812 66 -63 170 -92 266 -73 116 23 213 78 381 218 83 68 91 72 103 56 7 -10
13 -41 13 -70 0 -28 3 -72 6 -97 6 -39 11 -48 38 -61 111 -52 433 -51 515 3
27 18 33 248 21 851 -24 1239 -29 1436 -36 1457 -6 23 -6 23 -222 21 -215 -1
-216 -1 -240 -26z"/>
<path d="M15662 4753 l-25 -25 6 -157 c3 -86 11 -250 18 -365 18 -331 -9 -576
-77 -693 -31 -54 -143 -154 -215 -193 -103 -55 -159 -35 -178 64 -33 160 -44
352 -48 843 -6 600 9 545 -145 520 -95 -15 -111 -15 -241 0 l-139 17 -25 -29
c-26 -29 -26 -30 -19 -170 4 -77 10 -347 14 -600 5 -254 11 -465 14 -470 3 -6
11 -100 18 -210 25 -428 64 -623 153 -756 46 -70 94 -103 177 -125 145 -37
297 27 526 222 42 35 80 64 84 64 11 0 17 -38 24 -145 4 -57 11 -83 22 -92 33
-24 155 -43 279 -44 171 0 241 15 264 59 18 35 22 340 11 852 -6 289 -15 725
-20 970 -5 245 -12 455 -16 467 -6 23 -7 23 -222 22 l-215 -1 -25 -25z"/>
<path d="M24487 4583 c-4 -3 -7 -33 -7 -65 0 -44 4 -60 16 -65 8 -3 20 -1 26
5 17 17 22 100 8 117 -13 16 -32 20 -43 8z"/>
<path d="M24565 3753 c-79 -4 -216 -21 -285 -35 -52 -10 -58 -14 -86 -63 -17
-29 -60 -110 -95 -181 -35 -71 -67 -131 -70 -134 -3 -3 -66 -122 -139 -265
-73 -143 -136 -264 -140 -270 -30 -40 -101 -197 -96 -210 16 -44 211 -86 526
-115 238 -22 936 -12 1080 16 14 2 59 9 101 14 81 9 119 17 159 30 14 5 37 11
53 14 15 4 27 13 27 21 0 8 5 15 10 15 6 0 10 -6 10 -12 0 -7 7 -2 16 10 10
15 13 27 6 35 -5 7 -34 59 -65 117 -30 58 -69 132 -87 165 -18 33 -64 121
-102 195 -38 74 -74 139 -79 145 -5 5 -9 14 -9 21 0 7 -16 41 -36 76 -20 34
-65 120 -101 190 -35 69 -70 132 -78 138 -8 7 -15 19 -15 26 0 8 -2 14 -5 14
-2 0 -60 9 -127 19 -130 20 -274 30 -373 24z m-247 -95 c7 -7 12 -18 12 -26 0
-13 -56 -139 -96 -216 -8 -16 -24 -56 -35 -90 -11 -34 -25 -65 -30 -70 -5 -6
-9 -18 -9 -28 0 -10 -4 -18 -9 -18 -5 0 -11 -10 -14 -22 -11 -48 -59 -171 -72
-184 -18 -19 -65 -18 -93 2 -18 13 -22 22 -17 44 8 37 280 575 307 607 13 16
40 17 56 1z m366 -160 c8 -13 5 -23 -14 -43 -27 -29 -36 -31 -56 -11 -15 15
-19 58 -7 70 13 12 66 2 77 -16z m373 -74 c12 -8 31 -35 42 -60 23 -51 26 -74
11 -74 -5 0 -10 -8 -10 -19 0 -67 -127 -126 -192 -88 -61 35 -78 59 -78 109 0
75 32 123 95 146 35 13 101 6 132 -14z m23 16 c0 -5 -2 -10 -4 -10 -3 0 -8 5
-11 10 -3 6 -1 10 4 10 6 0 11 -4 11 -10z m-720 -80 c0 -5 -5 -10 -11 -10 -5
0 -7 5 -4 10 3 6 8 10 11 10 2 0 4 -4 4 -10z m50 -30 c21 0 72 -44 89 -77 28
-54 0 -133 -59 -163 -98 -50 -180 4 -180 119 0 43 5 55 33 85 32 34 60 47 85
40 8 -2 22 -4 32 -4z m111 -83 c-8 -8 -11 -7 -11 4 0 20 13 34 18 19 3 -7 -1
-17 -7 -23z m-504 -29 c-3 -8 -6 -5 -6 6 -1 11 2 17 5 13 3 -3 4 -12 1 -19z
m221 -23 c-3 -3 -9 2 -12 12 -6 14 -5 15 5 6 7 -7 10 -15 7 -18z m750 -217
c52 -32 77 -65 91 -118 17 -66 6 -121 -32 -172 -48 -62 -79 -81 -141 -86 -87
-7 -125 4 -168 50 -21 22 -38 49 -38 58 0 10 -5 20 -11 22 -14 5 -13 121 1
150 17 33 72 88 87 88 7 0 13 4 13 8 0 32 145 32 198 0z m-970 -61 c14 -11 16
-47 3 -79 -5 -13 -17 -50 -26 -83 -9 -33 -20 -67 -25 -75 -4 -9 -11 -30 -14
-47 -11 -46 -28 -56 -83 -48 -57 8 -113 40 -113 63 1 9 29 73 63 142 43 85 70
129 87 137 26 13 86 8 108 -10z m1375 -81 c25 -20 21 -54 -8 -68 -21 -9 -28
-8 -45 7 -23 21 -25 40 -7 60 15 18 37 18 60 1z m-1032 -86 c22 -12 26 -67 7
-92 -22 -27 -59 -30 -80 -6 -10 12 -18 29 -18 38 0 26 35 61 68 69 2 1 12 -4
23 -9z m572 -177 c-7 -2 -19 -2 -25 0 -7 3 -2 5 12 5 14 0 19 -2 13 -5z"/>
<path d="M24940 3403 c52 -17 57 -23 50 -65 -9 -46 -15 -54 -52 -63 -34 -9
-62 29 -53 71 5 25 5 26 -5 11 -7 -10 -9 -30 -6 -43 9 -35 59 -84 85 -84 35 0
91 28 91 44 0 9 5 16 10 16 20 0 10 59 -16 89 -22 27 -32 31 -72 30 -26 0 -40
-3 -32 -6z m88 -38 c-3 -3 -9 2 -12 12 -6 14 -5 15 5 6 7 -7 10 -15 7 -18z"/>
<path d="M24328 3283 c-49 -31 -51 -120 -3 -155 15 -12 87 -10 80 2 -3 5 0 7
8 4 19 -7 47 38 47 76 0 34 -27 83 -41 74 -5 -3 -9 0 -9 5 0 17 -52 12 -82 -6z
m72 -64 c-5 -9 -7 -27 -4 -40 4 -20 3 -21 -4 -5 -6 14 -11 16 -16 8 -13 -21
-56 -14 -65 11 -13 33 2 61 40 73 31 11 35 10 46 -9 7 -13 8 -28 3 -38z"/>
<path d="M24822 2941 c-8 -4 -14 -12 -15 -17 -1 -5 -6 -8 -11 -6 -19 6 -49
-37 -69 -100 -9 -27 15 -88 42 -108 43 -30 105 -42 138 -28 54 25 92 85 93
149 0 39 -5 52 -34 83 -31 32 -40 36 -83 36 -26 0 -54 -4 -61 -9z m62 -56 c21
-31 20 -35 -7 -66 -49 -56 -109 -63 -121 -13 -20 77 87 142 128 79z"/>
<path d="M24317 2704 c-8 -8 1 -24 14 -24 5 0 9 7 9 15 0 15 -12 20 -23 9z"/>
</g>
</svg>
